<svg width="64" height="64" version="1.1" viewBox="0 0 16.9 16.9" xmlns="http://www.w3.org/2000/svg">
 <rect x="-1.73e-18" y="-1.73e-18" width="16.9" height="16.9" ry="4.23" fill="#7258b4"/>
 <text fill="black" font-family="sans-serif" font-size="10.6px" letter-spacing="0px" word-spacing="0px" style="line-height:1.25;shape-inside:url(#rect848);white-space:pre" xml:space="preserve"/>
 <g transform="translate(-.0505 .151)">
  <path d="m8.78 8.42s1.17-.243 3.06 1.38c1.99 1.71 3 3.7 3.62 5.75-2.19-1.61-3.68-1.9-5.6-4.39-1.65-2.14-1.07-2.74-1.07-2.74z" fill="#ff6eff"/>
  <path d="m8.74 8.45s-.255.833.743 2.04c1.05 1.27 2.2 1.43 3.98 2.76-1.03-1.58-1.28-3.09-2.88-4.25-1.37-.994-1.84-.547-1.84-.547z" fill="#f0f"/>
 </g>
 <g transform="matrix(.71 .71 -.71 .71 8.66 -39.8)">
  <g transform="matrix(.743 0 0 .743 6.46 7.5)">
   <path d="m28.5 31.6c-2.28 0-4.13 1.85-4.13 4.13s1.85 4.13 4.13 4.13c2.28 0 4.13-1.85 4.13-4.13s-1.85-4.13-4.13-4.13zm0 .766c1.86 0 3.36 1.5 3.36 3.36 0 1.86-1.5 3.36-3.36 3.36-1.86 0-3.36-1.5-3.36-3.36 0-1.86 1.5-3.36 3.36-3.36z" color="#000000" color-rendering="auto" dominant-baseline="auto" fill="#1a1a1a" image-rendering="auto" shape-rendering="auto" solid-color="#000000" stop-color="#000000" style="font-feature-settings:normal;font-variant-alternates:normal;font-variant-caps:normal;font-variant-east-asian:normal;font-variant-ligatures:normal;font-variant-numeric:normal;font-variant-position:normal;font-variation-settings:normal;inline-size:0;isolation:auto;mix-blend-mode:normal;shape-margin:0;shape-padding:0;text-decoration-color:#000000;text-decoration-line:none;text-decoration-style:solid;text-indent:0;text-orientation:mixed;text-transform:none;white-space:normal"/>
   <path d="m32.3 35.2 5.38-.0856v1.34l-5.38-.0856z" fill="#1a1a1a"/>
   <path d="m28.5 32.4c1.86 0 3.36 1.5 3.36 3.36 0 1.86-1.5 3.36-3.36 3.36-1.86 0-3.36-1.5-3.36-3.36 0-1.86 1.5-3.36 3.36-3.36z" color="#000000" color-rendering="auto" dominant-baseline="auto" fill="#f9f9f9" fill-opacity=".249" image-rendering="auto" shape-rendering="auto" solid-color="#000000" stop-color="#000000" style="font-feature-settings:normal;font-variant-alternates:normal;font-variant-caps:normal;font-variant-east-asian:normal;font-variant-ligatures:normal;font-variant-numeric:normal;font-variant-position:normal;font-variation-settings:normal;inline-size:0;isolation:auto;mix-blend-mode:normal;shape-margin:0;shape-padding:0;text-decoration-color:#000000;text-decoration-line:none;text-decoration-style:solid;text-indent:0;text-orientation:mixed;text-transform:none;white-space:normal"/>
   <path d="m25.7 34.5c-.54 1.34-.103 2.17.253 3.04.0175.0428.0367.0772.097-.0178.209-.329.249-.35.707-.806-.898-.917-.762-1.52-.748-2.59l-.182.185c-.0654.0664-.0966.119-.127.195z" fill="#fff" fill-opacity=".418"/>
  </g>
 </g>
</svg>
